<svg id="logo-black" data-name="logo-black" xmlns="http://www.w3.org/2000/svg" viewBox="0 0 112.03 108.29" ><path fill="black" class="cls-1" d="M112,71.2l-5.26-40.86a9,9,0,0,0-4.64-6.74L60.15,1.07a9,9,0,0,0-8.52,0L10.24,23.61a9,9,0,0,0-4.6,6.67L.08,71.19a9,9,0,0,0,4.43,9C8.42,82.42,14,85.68,20,89.25c.44-.69.89-1.38,1.34-2.07S22,85.9,21,85.41a21.5,21.5,0,0,1-2.47-1.58l-7.68-4.89a1.56,1.56,0,0,1-.47-2.13l2.94-4.57a1.54,1.54,0,0,1,2.11-.47l5.77,3.64a3.14,3.14,0,0,0,.48-.45q8.41-13.23,16.82-26.45l.18-.28c.91-1.43,1.82-2.85,2.72-4.28l1.53-2.4Q49.1,31.82,55.29,22.1l3.36-5.27a4.06,4.06,0,0,1,2.18-1.53c3.86-.87,7.75-1.7,11.72-2.56a1.54,1.54,0,0,1,1.83,1.17c.82,3.75,1.63,7.47,2.48,11.17a4.58,4.58,0,0,1-.62,3.53c-2.81,4.32-5.54,8.7-8.31,13l-.34.53-3.3,5.17L59,55.69c-1.15,1.79-2.29,3.57-3.42,5.36-.92,1.42-1.82,2.85-2.73,4.27C48.54,72.05,44.28,78.79,40,85.57a1.53,1.53,0,0,0,.45,2.11L45,90.63a1.53,1.53,0,0,1,.45,2.12l-3,4.57a1.54,1.54,0,0,1-2.12.46c-3.49-2.26-6.86-4.43-10.23-6.59-.59-.38-1.06-.46-1.54.31s-.86,1.4-1.3,2.1c7.72,4.6,15.44,9.24,20.93,12.54a15,15,0,0,0,15.5,0c5.37-3.25,12.9-7.79,20.47-12.31-.45-.71-.9-1.42-1.34-2.13s-.94-.68-1.53-.3L71.27,98a1.52,1.52,0,0,1-2.1-.44l-3-4.51a1.53,1.53,0,0,1,.44-2.1l4.5-3a1.52,1.52,0,0,0,.44-2.09L58.73,66l-1.68-2.6.62-1c1.13-1.78,2.27-3.55,3.42-5.35L69.42,44l.43.67,2.77,4.3.16.25L89.63,75.28a3.2,3.2,0,0,0,.48.44l5.68-3.64a1.52,1.52,0,0,1,2.09.44L100.82,77a1.51,1.51,0,0,1-.45,2.1L92.81,84a22.57,22.57,0,0,1-2.44,1.58c-1,.49-.85,1-.34,1.75l1.41,2.14c6.24-3.71,12-7.1,16-9.37A8.94,8.94,0,0,0,112,71.2ZM53.18,20.76Q47.3,30,41.43,39.24c-2-3.16-4-6.32-6.12-9.46a4.53,4.53,0,0,1-.64-3.49c.82-3.67,1.59-7.35,2.38-11.07a1.51,1.51,0,0,1,1.8-1.17c3.94.82,7.79,1.62,11.62,2.45A4.05,4.05,0,0,1,52.64,18c.39.6.78,1.19,1.16,1.79Z"/></svg>